<mxfile host="app.diagrams.net" agent="Mozilla/5.0 (Windows NT 10.0; Win64; x64) AppleWebKit/537.36 (KHTML, like Gecko) Chrome/140.0.0.0 Safari/537.36" version="28.2.5">
  <diagram name="Página-1" id="ROg5EKTgSs7GguIDZbF6">
    <mxGraphModel dx="2253" dy="777" grid="1" gridSize="10" guides="1" tooltips="1" connect="1" arrows="1" fold="1" page="1" pageScale="1" pageWidth="827" pageHeight="1169" math="0" shadow="0">
      <root>
        <mxCell id="0" />
        <mxCell id="1" parent="0" />
        <mxCell id="D-SneVZFWni9FiUGrCQ--8" style="edgeStyle=orthogonalEdgeStyle;rounded=0;hachureGap=4;orthogonalLoop=1;jettySize=auto;html=1;exitX=0.5;exitY=1;exitDx=0;exitDy=0;fontFamily=Architects Daughter;fontSource=https%3A%2F%2Ffonts.googleapis.com%2Fcss%3Ffamily%3DArchitects%2BDaughter;" edge="1" parent="1" source="D-SneVZFWni9FiUGrCQ--1">
          <mxGeometry relative="1" as="geometry">
            <mxPoint x="195.03846153846155" y="420" as="targetPoint" />
          </mxGeometry>
        </mxCell>
        <mxCell id="D-SneVZFWni9FiUGrCQ--11" style="edgeStyle=orthogonalEdgeStyle;rounded=0;hachureGap=4;orthogonalLoop=1;jettySize=auto;html=1;exitX=0;exitY=0.5;exitDx=0;exitDy=0;entryX=1;entryY=0.5;entryDx=0;entryDy=0;fontFamily=Architects Daughter;fontSource=https%3A%2F%2Ffonts.googleapis.com%2Fcss%3Ffamily%3DArchitects%2BDaughter;" edge="1" parent="1" source="D-SneVZFWni9FiUGrCQ--1" target="D-SneVZFWni9FiUGrCQ--9">
          <mxGeometry relative="1" as="geometry" />
        </mxCell>
        <mxCell id="D-SneVZFWni9FiUGrCQ--14" style="edgeStyle=orthogonalEdgeStyle;rounded=0;hachureGap=4;orthogonalLoop=1;jettySize=auto;html=1;exitX=0.5;exitY=0;exitDx=0;exitDy=0;entryX=0.5;entryY=1;entryDx=0;entryDy=0;fontFamily=Architects Daughter;fontSource=https%3A%2F%2Ffonts.googleapis.com%2Fcss%3Ffamily%3DArchitects%2BDaughter;" edge="1" parent="1" source="D-SneVZFWni9FiUGrCQ--1" target="D-SneVZFWni9FiUGrCQ--12">
          <mxGeometry relative="1" as="geometry" />
        </mxCell>
        <mxCell id="D-SneVZFWni9FiUGrCQ--1" value="&lt;div&gt;&lt;font face=&quot;Helvetica&quot;&gt;&lt;b&gt;Módulo de Processamento e Lógica:&lt;/b&gt;&lt;/font&gt;&lt;/div&gt;&lt;div&gt;&lt;font face=&quot;Helvetica&quot;&gt;&lt;span class=&quot;citation-206 citation-end-206&quot;&gt;&amp;nbsp;&lt;/span&gt;&lt;/font&gt;&lt;/div&gt;&lt;div&gt;&lt;font face=&quot;Helvetica&quot;&gt;&lt;span class=&quot;citation-206 citation-end-206&quot;&gt;Onde a MCU (&lt;/span&gt;&lt;/font&gt;&lt;font face=&quot;Helvetica&quot;&gt;STM32F407VET6&lt;/font&gt;&lt;font face=&quot;Helvetica&quot;&gt;&lt;span class=&quot;citation-206 citation-end-206&quot;&gt;) &lt;sup data-turn-source-index=&quot;23&quot; class=&quot;superscript&quot;&gt;&lt;/sup&gt;&lt;/span&gt;&lt;span class=&quot;citation-205 citation-end-205&quot;&gt;executa a máquina de estados&lt;sup data-turn-source-index=&quot;24&quot; class=&quot;superscript&quot;&gt;&lt;/sup&gt;&lt;/span&gt;. &lt;span class=&quot;citation-204 citation-end-204&quot;&gt;Ele recebe os dados brutos, aplica limiares pré-definidos para identificar Freadas Bruscas &lt;sup data-turn-source-index=&quot;25&quot; class=&quot;superscript&quot;&gt;&lt;/sup&gt;&lt;/span&gt;&lt;span class=&quot;citation-203 citation-end-203&quot;&gt;, Batidas &lt;sup data-turn-source-index=&quot;26&quot; class=&quot;superscript&quot;&gt;&lt;/sup&gt;&lt;/span&gt;&lt;span class=&quot;citation-202 citation-end-202&quot;&gt;e Curvas Acentuadas&lt;sup data-turn-source-index=&quot;27&quot; class=&quot;superscript&quot;&gt;&lt;/sup&gt;&lt;/span&gt;.&lt;/font&gt;&lt;font face=&quot;Helvetica&quot;&gt;&lt;/font&gt;&lt;/div&gt;" style="rounded=0;whiteSpace=wrap;html=1;hachureGap=4;fontFamily=Architects Daughter;fontSource=https%3A%2F%2Ffonts.googleapis.com%2Fcss%3Ffamily%3DArchitects%2BDaughter;shadow=0;" vertex="1" parent="1">
          <mxGeometry x="50" y="200" width="290" height="180" as="geometry" />
        </mxCell>
        <mxCell id="D-SneVZFWni9FiUGrCQ--4" style="edgeStyle=orthogonalEdgeStyle;rounded=0;hachureGap=4;orthogonalLoop=1;jettySize=auto;html=1;entryX=1;entryY=0.5;entryDx=0;entryDy=0;fontFamily=Architects Daughter;fontSource=https%3A%2F%2Ffonts.googleapis.com%2Fcss%3Ffamily%3DArchitects%2BDaughter;" edge="1" parent="1" source="D-SneVZFWni9FiUGrCQ--2" target="D-SneVZFWni9FiUGrCQ--1">
          <mxGeometry relative="1" as="geometry" />
        </mxCell>
        <mxCell id="D-SneVZFWni9FiUGrCQ--2" value="&lt;font face=&quot;Helvetica&quot;&gt;&lt;b&gt;Módulo de Aquisição de Dados:&lt;/b&gt;&lt;/font&gt;&lt;div&gt;&lt;font face=&quot;Helvetica&quot;&gt;&lt;span class=&quot;citation-208 citation-end-208&quot;&gt;&lt;br&gt;&lt;/span&gt;&lt;/font&gt;&lt;/div&gt;&lt;div&gt;&lt;font face=&quot;Helvetica&quot;&gt;&lt;span class=&quot;citation-208 citation-end-208&quot;&gt; Responsável por ler os dados brutos dos sensores MPU6050 (aceleração e giro) &lt;sup data-turn-source-index=&quot;21&quot; class=&quot;superscript&quot;&gt;&lt;/sup&gt;&lt;/span&gt;&lt;span class=&quot;citation-207 citation-end-207&quot;&gt;e HC-SR04 (distância)&lt;sup data-turn-source-index=&quot;22&quot; class=&quot;superscript&quot;&gt;&lt;/sup&gt;&lt;/span&gt;.&lt;/font&gt;&lt;/div&gt;" style="rounded=0;whiteSpace=wrap;html=1;hachureGap=4;fontFamily=Architects Daughter;fontSource=https%3A%2F%2Ffonts.googleapis.com%2Fcss%3Ffamily%3DArchitects%2BDaughter;" vertex="1" parent="1">
          <mxGeometry x="380" y="200" width="270" height="180" as="geometry" />
        </mxCell>
        <mxCell id="D-SneVZFWni9FiUGrCQ--5" style="edgeStyle=orthogonalEdgeStyle;rounded=0;hachureGap=4;orthogonalLoop=1;jettySize=auto;html=1;exitX=1;exitY=0.5;exitDx=0;exitDy=0;entryX=0;entryY=0.5;entryDx=0;entryDy=0;fontFamily=Architects Daughter;fontSource=https%3A%2F%2Ffonts.googleapis.com%2Fcss%3Ffamily%3DArchitects%2BDaughter;" edge="1" parent="1" source="D-SneVZFWni9FiUGrCQ--1" target="D-SneVZFWni9FiUGrCQ--2">
          <mxGeometry relative="1" as="geometry" />
        </mxCell>
        <mxCell id="D-SneVZFWni9FiUGrCQ--7" style="edgeStyle=orthogonalEdgeStyle;rounded=0;hachureGap=4;orthogonalLoop=1;jettySize=auto;html=1;entryX=0.5;entryY=1;entryDx=0;entryDy=0;fontFamily=Architects Daughter;fontSource=https%3A%2F%2Ffonts.googleapis.com%2Fcss%3Ffamily%3DArchitects%2BDaughter;" edge="1" parent="1" source="D-SneVZFWni9FiUGrCQ--6" target="D-SneVZFWni9FiUGrCQ--1">
          <mxGeometry relative="1" as="geometry" />
        </mxCell>
        <mxCell id="D-SneVZFWni9FiUGrCQ--6" value="&lt;font face=&quot;Helvetica&quot;&gt;&lt;b&gt;Módulo de Interface com o Usuário:&lt;/b&gt;&lt;span class=&quot;citation-201 citation-end-201&quot;&gt;&amp;nbsp;&lt;/span&gt;&lt;/font&gt;&lt;div&gt;&lt;font face=&quot;Helvetica&quot;&gt;&lt;span class=&quot;citation-201 citation-end-201&quot;&gt;&lt;br&gt;&lt;/span&gt;&lt;/font&gt;&lt;/div&gt;&lt;div&gt;&lt;font face=&quot;Helvetica&quot;&gt;&lt;span class=&quot;citation-201 citation-end-201&quot;&gt;Controla os LEDs para sinalizar a ocorrência de um evento específico &lt;sup data-turn-source-index=&quot;28&quot; class=&quot;superscript&quot;&gt;&lt;/sup&gt;&lt;/span&gt;&lt;span class=&quot;citation-200 citation-end-200&quot;&gt;e atualiza o display com a contagem de cada evento&lt;sup data-turn-source-index=&quot;29&quot; class=&quot;superscript&quot;&gt;&lt;/sup&gt;&lt;/span&gt;. &lt;span class=&quot;citation-199 citation-end-199&quot;&gt;Também lida com a entrada do botão para zerar os contadores&lt;sup data-turn-source-index=&quot;30&quot; class=&quot;superscript&quot;&gt;&lt;/sup&gt;&lt;/span&gt;.&lt;/font&gt;&lt;/div&gt;" style="rounded=0;whiteSpace=wrap;html=1;hachureGap=4;fontFamily=Architects Daughter;fontSource=https%3A%2F%2Ffonts.googleapis.com%2Fcss%3Ffamily%3DArchitects%2BDaughter;" vertex="1" parent="1">
          <mxGeometry x="50" y="420" width="290" height="160" as="geometry" />
        </mxCell>
        <mxCell id="D-SneVZFWni9FiUGrCQ--10" style="edgeStyle=orthogonalEdgeStyle;rounded=0;hachureGap=4;orthogonalLoop=1;jettySize=auto;html=1;fontFamily=Architects Daughter;fontSource=https%3A%2F%2Ffonts.googleapis.com%2Fcss%3Ffamily%3DArchitects%2BDaughter;" edge="1" parent="1" source="D-SneVZFWni9FiUGrCQ--9" target="D-SneVZFWni9FiUGrCQ--1">
          <mxGeometry relative="1" as="geometry" />
        </mxCell>
        <mxCell id="D-SneVZFWni9FiUGrCQ--9" value="&lt;font face=&quot;Helvetica&quot;&gt;&lt;b&gt;Módulo de Armazenamento:&lt;/b&gt;&lt;/font&gt;&lt;div&gt;&lt;font face=&quot;Helvetica&quot;&gt;&lt;span class=&quot;citation-198 citation-end-198&quot;&gt;&lt;br&gt;&lt;/span&gt;&lt;/font&gt;&lt;/div&gt;&lt;div&gt;&lt;font face=&quot;Helvetica&quot;&gt;&lt;span class=&quot;citation-198 citation-end-198&quot;&gt; Grava os dados dos eventos ou telemetria no cartão SD&lt;sup data-turn-source-index=&quot;31&quot; class=&quot;superscript&quot;&gt;&lt;/sup&gt;&lt;/span&gt;.&lt;/font&gt;&lt;/div&gt;" style="rounded=0;whiteSpace=wrap;html=1;hachureGap=4;fontFamily=Architects Daughter;fontSource=https%3A%2F%2Ffonts.googleapis.com%2Fcss%3Ffamily%3DArchitects%2BDaughter;" vertex="1" parent="1">
          <mxGeometry x="-240" y="200" width="250" height="180" as="geometry" />
        </mxCell>
        <mxCell id="D-SneVZFWni9FiUGrCQ--13" style="edgeStyle=orthogonalEdgeStyle;rounded=0;hachureGap=4;orthogonalLoop=1;jettySize=auto;html=1;exitX=0.5;exitY=1;exitDx=0;exitDy=0;entryX=0.5;entryY=0;entryDx=0;entryDy=0;fontFamily=Architects Daughter;fontSource=https%3A%2F%2Ffonts.googleapis.com%2Fcss%3Ffamily%3DArchitects%2BDaughter;" edge="1" parent="1" source="D-SneVZFWni9FiUGrCQ--12" target="D-SneVZFWni9FiUGrCQ--1">
          <mxGeometry relative="1" as="geometry" />
        </mxCell>
        <mxCell id="D-SneVZFWni9FiUGrCQ--12" value="&lt;font face=&quot;Helvetica&quot;&gt;&lt;b&gt;Módulo de Energia:&lt;/b&gt;&lt;/font&gt;&lt;div&gt;&lt;font face=&quot;Helvetica&quot;&gt;&lt;span class=&quot;citation-197 citation-end-197&quot;&gt;&lt;br&gt;&lt;/span&gt;&lt;/font&gt;&lt;/div&gt;&lt;div&gt;&lt;font face=&quot;Helvetica&quot;&gt;&lt;span class=&quot;citation-197 citation-end-197&quot;&gt; Gerenciado pelo LM2596, que regula a tensão do banco de baterias para alimentar todo o sistema&lt;sup data-turn-source-index=&quot;32&quot; class=&quot;superscript&quot;&gt;&lt;/sup&gt;&lt;/span&gt;.&lt;/font&gt;&lt;/div&gt;" style="rounded=0;whiteSpace=wrap;html=1;hachureGap=4;fontFamily=Architects Daughter;fontSource=https%3A%2F%2Ffonts.googleapis.com%2Fcss%3Ffamily%3DArchitects%2BDaughter;" vertex="1" parent="1">
          <mxGeometry x="50" y="40" width="290" height="130" as="geometry" />
        </mxCell>
      </root>
    </mxGraphModel>
  </diagram>
</mxfile>
